# Blender v2.79 (sub 0) OBJ File: ''
# www.blender.org
mtllib base.mtl
o Plane.002_Plane.006
v 0.988119 0.716939 2.309481
v 0.988119 0.716939 -2.362343
v 1.494234 0.716939 -2.362343
v 1.552632 0.716939 -2.303946
v 1.552632 0.716939 2.251084
v 1.494234 0.716939 2.309481
v 0.988119 0.802589 2.309481
v 0.988119 0.802589 -2.362343
v 1.552632 0.802589 -2.303946
v 1.552632 0.802589 2.251084
v 1.494234 0.802589 2.309481
v 1.494234 0.802589 -2.362343
v -0.277166 0.241970 -2.362343
v -1.542452 0.802589 2.251084
v -1.484054 0.802589 2.309481
v -0.977940 0.802589 2.309481
v -0.977940 0.802589 -2.362343
v -1.484054 0.802589 -2.362343
v -1.542452 0.802589 -2.303946
v -0.977940 0.716939 -2.362343
v -1.484054 0.716939 -2.362343
v -1.542452 0.716939 -2.303946
v -1.542452 0.716939 2.251084
v -0.977940 0.716939 2.309481
v -1.484054 0.716939 2.309481
v -0.822212 0.716939 2.309481
v -0.822212 0.716939 -2.362343
v -0.432894 0.716939 -2.362343
v -0.432894 0.716939 2.309481
v -0.822212 0.802589 2.309481
v -0.432894 0.802589 2.309481
v -0.432894 0.802589 -2.362343
v -0.822212 0.802589 -2.362343
v 0.443073 0.716939 2.309481
v 0.443073 0.716939 -2.362343
v 0.832392 0.716939 -2.362343
v 0.832392 0.716939 2.309481
v 0.443073 0.802589 2.309481
v 0.832392 0.802589 2.309481
v 0.832392 0.802589 -2.362343
v 0.443073 0.802589 -2.362343
v -0.277166 0.716939 2.309481
v -0.277166 0.716939 -2.362343
v 0.287346 0.716939 -2.362343
v 0.287346 0.716939 2.309481
v -0.277166 0.802589 2.309481
v 0.287346 0.802589 2.309481
v 0.287346 0.802589 -2.362343
v -0.277166 0.802589 -2.362343
vt 1.402292 0.727318
vt 1.037995 0.731695
vt 1.037874 0.577147
vt 1.042413 0.559260
vt 1.397604 0.554993
vt 1.402171 0.572771
vt 0.299501 0.334603
vt 0.635420 0.330568
vt 0.635439 0.354685
vt 0.299520 0.358720
vt 0.299080 0.487817
vt 0.626601 0.483882
vt 0.626620 0.507999
vt 0.299099 0.511934
vt 0.438428 0.233444
vt 0.437861 0.048445
vt 0.469168 0.048349
vt 0.469736 0.233347
vt 0.437795 0.027100
vt 0.469103 0.027003
vt 0.290950 0.788448
vt 0.291156 0.952697
vt 0.283435 0.971707
vt -0.320626 0.976242
vt -0.328394 0.957348
vt -0.328600 0.793099
vt 0.110581 0.233347
vt 0.079274 0.233443
vt 0.079208 0.212097
vt 0.110516 0.212002
vt 0.078641 0.027099
vt 0.109948 0.027003
vt 0.706958 0.785182
vt 0.714726 0.804075
vt 0.714932 0.968324
vt 0.095382 0.972975
vt 0.095176 0.808726
vt 0.102897 0.789717
vt 0.470369 0.233444
vt 0.469801 0.048445
vt 0.501109 0.048349
vt 0.501676 0.233347
vt 0.667035 0.319301
vt 0.987380 0.315452
vt 0.987398 0.339040
vt 0.667053 0.342889
vt 0.662695 0.375699
vt 0.991254 0.371752
vt 0.991272 0.395341
vt 0.662713 0.399288
vt 0.110647 0.212002
vt 0.141954 0.212098
vt 0.141889 0.233443
vt 0.110581 0.233347
vt 0.111214 0.027003
vt 0.142522 0.027099
vt 0.469736 0.027099
vt 0.501043 0.027003
vt 1.349648 0.712615
vt 1.345108 0.730502
vt 0.989918 0.734769
vt 0.985351 0.716991
vt 0.985229 0.562444
vt 1.349527 0.558067
vt -0.416422 0.572161
vt 0.130012 0.578726
vt 0.129872 0.757046
vt -0.416562 0.750481
vt 0.535716 0.565843
vt 0.535885 0.742862
vt -0.127540 0.749379
vt -0.127709 0.572360
vt 0.299501 0.362756
vt 0.635420 0.358720
vt 0.635439 0.382837
vt 0.299520 0.386873
vt 0.713696 0.233378
vt 0.713259 0.091072
vt 0.744566 0.090975
vt 0.745003 0.233282
vt 0.649640 0.233282
vt 0.650076 0.090975
vt 0.681384 0.091072
vt 0.680947 0.233378
vt 0.294199 0.449503
vt 0.630118 0.445468
vt 0.630137 0.469585
vt 0.294217 0.473620
vt 0.215083 0.735222
vt -0.331351 0.741787
vt -0.331491 0.563467
vt 0.214943 0.556902
vt 0.407888 0.560722
vt 0.408058 0.737741
vt -0.255367 0.744258
vt -0.255537 0.567238
vt 0.299501 0.278298
vt 0.635420 0.274263
vt 0.635439 0.298380
vt 0.299520 0.302415
vt 0.893535 0.233378
vt 0.893098 0.091072
vt 0.924405 0.090975
vt 0.924842 0.233282
vt 0.533551 0.233282
vt 0.533988 0.090975
vt 0.565295 0.091072
vt 0.564858 0.233378
vt 0.662695 0.403235
vt 0.991254 0.399288
vt 0.991272 0.422876
vt 0.662713 0.426823
vt 1.080124 0.549691
vt 1.444422 0.554068
vt 1.444287 0.726448
vt 1.079989 0.722071
vt 0.010795 0.794193
vt 0.011025 0.977393
vt -0.608526 0.982044
vt -0.608756 0.798844
vt 0.299501 0.306451
vt 0.635420 0.302415
vt 0.635439 0.326532
vt 0.299520 0.330568
vt 0.142522 0.233347
vt 0.143155 0.027003
vt 0.174462 0.027099
vt 0.173829 0.233443
vt 0.406488 0.233444
vt 0.405855 0.027100
vt 0.437162 0.027003
vt 0.437795 0.233347
vt 0.662695 0.430771
vt 0.991254 0.426823
vt 0.991272 0.450412
vt 0.662713 0.454359
vn 0.0000 -1.0000 -0.0000
vn -1.0000 0.0000 0.0000
vn 1.0000 0.0000 0.0000
vn 0.0000 -0.0000 1.0000
vn 0.7071 -0.0000 0.7071
vn -0.0000 1.0000 0.0000
vn 0.7071 0.0000 -0.7071
vn 0.0000 0.0000 -1.0000
vn -0.7071 -0.0000 0.7071
vn -0.7071 0.0000 -0.7071
usemtl pallet_mat_pallet_planks.png
s 1
f 1/1/1 2/2/1 3/3/1 4/4/1 5/5/1 6/6/1
f 2/7/2 1/8/2 7/9/2 8/10/2
f 5/11/3 4/12/3 9/13/3 10/14/3
f 1/15/4 6/16/4 11/17/4 7/18/4
f 5/19/5 10/20/5 11/17/5 6/16/5
f 7/21/6 11/22/6 10/23/6 9/24/6 12/25/6 8/26/6
f 9/27/7 4/28/7 3/29/7 12/30/7
f 3/29/8 2/31/8 8/32/8 12/30/8
f 14/33/6 15/34/6 16/35/6 17/36/6 18/37/6 19/38/6
f 20/39/8 21/40/8 18/41/8 17/42/8
f 22/43/2 23/44/2 14/45/2 19/46/2
f 24/47/3 20/48/3 17/49/3 16/50/3
f 25/51/9 15/52/9 14/53/9 23/54/9
f 25/51/4 24/55/4 16/56/4 15/52/4
f 18/41/10 21/40/10 22/57/10 19/58/10
f 25/59/1 23/60/1 22/61/1 21/62/1 20/63/1 24/64/1
f 26/65/1 27/66/1 28/67/1 29/68/1
f 30/69/6 31/70/6 32/71/6 33/72/6
f 27/73/2 26/74/2 30/75/2 33/76/2
f 26/77/4 29/78/4 31/79/4 30/80/4
f 28/81/8 27/82/8 33/83/8 32/84/8
f 29/85/3 28/86/3 32/87/3 31/88/3
f 34/89/1 35/90/1 36/91/1 37/92/1
f 38/93/6 39/94/6 40/95/6 41/96/6
f 35/97/2 34/98/2 38/99/2 41/100/2
f 34/101/4 37/102/4 39/103/4 38/104/4
f 36/105/8 35/106/8 41/107/8 40/108/8
f 37/109/3 36/110/3 40/111/3 39/112/3
f 42/113/1 43/114/1 44/115/1 45/116/1
f 46/117/6 47/118/6 48/119/6 49/120/6
f 43/121/2 42/122/2 46/123/2 49/124/2
f 42/125/4 45/126/4 47/127/4 46/128/4
f 44/129/8 43/130/8 49/131/8 48/132/8
f 45/133/3 44/134/3 48/135/3 47/136/3
