# Blender v2.79 (sub 0) OBJ File: ''
# www.blender.org
mtllib piso3.mtl
o Plane.002_Plane.006
v -1.542452 0.327621 2.251084
v -1.484054 0.327621 2.309481
v -1.153134 0.327621 2.309481
v -1.153134 0.327621 -2.362343
v -1.484054 0.327621 -2.362343
v -1.542452 0.327621 -2.303946
v -1.153134 0.241970 -2.362343
v -1.484054 0.241970 -2.362343
v -1.542452 0.241970 -2.303946
v -1.542452 0.241970 2.251084
v -1.153134 0.241970 2.309481
v -1.484054 0.241970 2.309481
vt 1.121795 0.550804
vt 1.130113 0.577275
vt 1.130257 0.727742
vt 0.466832 0.734259
vt 0.466688 0.583792
vt 0.474955 0.557158
vt 0.861354 0.233282
vt 0.861725 0.112322
vt 0.893033 0.112418
vt 0.892661 0.233378
vt 0.662695 0.348164
vt 0.983040 0.344315
vt 0.983058 0.367904
vt 0.662714 0.371752
vt 0.662695 0.485842
vt 0.991254 0.481895
vt 0.991272 0.505483
vt 0.662713 0.509430
vt 0.565666 0.212033
vt 0.596973 0.211936
vt 0.597039 0.233282
vt 0.565732 0.233378
vt 0.565295 0.091072
vt 0.596602 0.090975
vt 0.861791 0.090975
vt 0.893098 0.091072
vt 0.772341 0.716570
vt 0.764073 0.743205
vt 0.117233 0.749559
vt 0.108915 0.723088
vt 0.108771 0.572622
vt 0.772196 0.566104
vn 0.0000 1.0000 0.0000
vn 0.0000 0.0000 -1.0000
vn -1.0000 0.0000 0.0000
vn 1.0000 0.0000 0.0000
vn -0.7071 0.0000 0.7071
vn 0.0000 0.0000 1.0000
vn -0.7071 0.0000 -0.7071
vn 0.0000 -1.0000 -0.0000
usemtl pallet_mat_pallet_planks.png
s 1
f 1/1/1 2/2/1 3/3/1 4/4/1 5/5/1 6/6/1
f 7/7/2 8/8/2 5/9/2 4/10/2
f 9/11/3 10/12/3 1/13/3 6/14/3
f 11/15/4 7/16/4 4/17/4 3/18/4
f 12/19/5 2/20/5 1/21/5 10/22/5
f 12/19/6 11/23/6 3/24/6 2/20/6
f 5/9/7 8/8/7 9/25/7 6/26/7
f 12/27/8 10/28/8 9/29/8 8/30/8 7/31/8 11/32/8
