# Blender v2.79 (sub 0) OBJ File: ''
# www.blender.org
mtllib sbase1.mtl
o Plane.002_Plane.006
v -1.542452 0.631289 -1.797831
v -1.542452 0.631289 -2.303945
v -1.484054 0.631289 -2.362343
v 1.494233 0.631289 -2.362343
v 1.552631 0.631289 -2.303945
v 1.552631 0.631289 -1.797831
v 1.552631 0.716939 -1.797831
v 1.552631 0.716939 -2.303945
v 1.494233 0.716939 -2.362343
v -1.484054 0.716939 -2.362343
v -1.542452 0.716939 -2.303945
v -1.542452 0.716939 -1.797831
v 1.494234 0.631289 -2.362343
v 1.552632 0.631289 -2.303946
vt 1.562217 0.781990
vt 1.562423 0.946238
vt 1.554703 0.965248
vt 1.159739 0.968213
vt 1.151971 0.949320
vt 1.151765 0.785071
vt 1.669654 0.780293
vt 1.669860 0.944542
vt 1.662139 0.963551
vt 1.267175 0.966516
vt 1.259407 0.947623
vt 1.259202 0.783375
vt 0.501676 0.233282
vt 0.502244 0.048284
vt 0.533551 0.048379
vt 0.532983 0.233378
vt 0.258920 0.420094
vt 0.011819 0.423062
vt 0.011798 0.396285
vt 0.258899 0.393316
vt 0.011798 0.374720
vt 0.011819 0.347942
vt 0.016481 0.347998
vt 0.016460 0.374776
vt 0.712691 0.048285
vt 0.713259 0.233282
vt 0.681952 0.233378
vt 0.681384 0.048380
vt 0.254237 0.377632
vt 0.254258 0.350854
vt 0.258920 0.350910
vt 0.258899 0.377688
vn 0.0000 -1.0000 -0.0000
vn 0.0000 1.0000 0.0000
vn -1.0000 0.0000 0.0000
vn 0.0000 0.0000 1.0000
vn 0.7071 0.0000 -0.7071
vn 1.0000 0.0000 0.0000
vn -0.7071 0.0000 -0.7071
vn 0.0000 0.0000 -1.0000
usemtl pallet_mat_pallet_planks.png
s 1
f 1/1/1 2/2/1 3/3/1 4/4/1 5/5/1 6/6/1
f 7/7/2 8/8/2 9/9/2 10/10/2 11/11/2 12/12/2
usemtl pallet_mat
f 12/13/3 11/14/3 2/15/3 1/16/3
f 7/17/4 12/18/4 1/19/4 6/20/4
f 8/21/5 5/22/5 4/23/5 9/24/5
f 8/25/6 7/26/6 6/27/6 5/28/6
f 10/29/7 3/30/7 2/31/7 11/32/7
f 10/29/8 9/24/8 4/23/8 3/30/8
l 13 14
