# Blender v2.79 (sub 0) OBJ File: ''
# www.blender.org
mtllib torre3.mtl
o Plane.002_Plane.006
v -1.542452 0.631289 -1.797831
v -1.542452 0.631289 -2.303946
v -1.542452 0.327621 -2.303946
v -1.542452 0.327621 -1.797831
v -1.153134 0.631289 -2.362343
v -1.153134 0.631289 -1.797831
v -1.153134 0.327621 -1.797831
v -1.153134 0.327621 -2.362343
v 1.494234 0.327621 -2.362343
v -1.484054 0.631289 -2.362343
v -1.484054 0.327621 -2.362343
vt 0.630414 0.990506
vt 0.629790 0.787317
vt 0.751704 0.786943
vt 0.752327 0.990132
vt 0.140515 0.236172
vt 0.139819 0.009538
vt 0.261733 0.009163
vt 0.262428 0.235798
vt 0.893456 0.474666
vt 0.893081 0.318367
vt 0.988359 0.317993
vt 0.988734 0.474292
vt 0.893060 0.704086
vt 0.988616 0.704460
vt 0.988559 0.727904
vt 0.893003 0.727531
vt 0.893379 0.571231
vt 0.988935 0.571605
vn -1.0000 0.0000 0.0000
vn 1.0000 0.0000 0.0000
vn 0.0000 -0.0000 1.0000
vn -0.7071 0.0000 -0.7071
vn 0.0000 0.0000 -1.0000
usemtl pallet_box_mat
s 1
f 1/1/1 2/2/1 3/3/1 4/4/1
f 5/5/2 6/6/2 7/7/2 8/8/2
f 6/9/3 1/10/3 4/11/3 7/12/3
f 10/13/4 11/14/4 3/15/4 2/16/4
f 10/13/5 5/17/5 8/18/5 11/14/5
