# Blender v2.79 (sub 0) OBJ File: ''
# www.blender.org
mtllib torre7.mtl
o Plane.002_Plane.006
v 1.494234 0.327621 -2.362343
v -1.542452 0.327621 1.744969
v 1.552632 0.631289 1.744969
v 1.552632 0.631289 2.251083
v 1.552632 0.327621 2.251083
v 1.552632 0.327621 1.744969
v 1.163313 0.631289 2.309481
v 1.163313 0.631289 1.744969
v 1.163313 0.327621 1.744969
v 1.163313 0.327621 2.309481
v 1.494234 0.631289 2.309481
v 1.494234 0.327621 2.309481
vt 0.506751 0.990506
vt 0.506128 0.787317
vt 0.628041 0.786943
vt 0.628665 0.990132
vt 0.387984 0.493212
vt 0.387288 0.277552
vt 0.509202 0.277196
vt 0.509897 0.492856
vt 0.763866 0.963275
vt 0.763387 0.806975
vt 0.885301 0.806601
vt 0.885780 0.962901
vt 0.011741 0.920171
vt 0.133655 0.919797
vt 0.133727 0.943242
vt 0.011813 0.943616
vt 0.011334 0.787317
vt 0.133247 0.786943
vn 1.0000 0.0000 0.0000
vn -1.0000 -0.0000 0.0000
vn 0.0000 0.0000 -1.0000
vn 0.7071 0.0000 0.7071
vn 0.0000 0.0000 1.0000
usemtl pallet_box_mat
s 1
f 3/1/1 4/2/1 5/3/1 6/4/1
f 7/5/2 8/6/2 9/7/2 10/8/2
f 8/9/3 3/10/3 6/11/3 9/12/3
f 11/13/4 12/14/4 5/15/4 4/16/4
f 11/13/5 7/17/5 10/18/5 12/14/5
