# Blender v2.79 (sub 0) OBJ File: ''
# www.blender.org
mtllib torre8.mtl
o Plane.002_Plane.006
v -0.277166 0.327621 1.744969
v -0.277166 0.327621 2.309481
v -0.277166 0.631289 2.309481
v -0.277166 0.631289 1.744969
v 0.287346 0.327621 2.309481
v 0.287346 0.631289 2.309481
v 0.287346 0.327621 1.744969
v 0.287346 0.631289 1.744969
v 1.494234 0.327621 -2.362343
v -1.542452 0.327621 1.744969
vt 0.632936 0.277196
vt 0.633632 0.492856
vt 0.511718 0.493212
vt 0.511023 0.277552
vt 0.261733 0.534191
vt 0.262428 0.751102
vt 0.140515 0.751460
vt 0.139819 0.534549
vt 0.138694 0.277552
vt 0.137998 0.493212
vt 0.016085 0.492856
vt 0.016780 0.277196
vt 0.385467 0.534191
vt 0.386163 0.751102
vt 0.264249 0.751460
vt 0.263554 0.534549
vn -1.0000 0.0000 0.0000
vn 0.0000 0.0000 1.0000
vn 0.0000 0.0000 -1.0000
vn 1.0000 0.0000 0.0000
usemtl pallet_box_mat
s 1
f 1/1/1 2/2/1 3/3/1 4/4/1
f 2/5/2 5/6/2 6/7/2 3/8/2
f 7/9/3 1/10/3 4/11/3 8/12/3
f 5/13/4 7/14/4 8/15/4 6/16/4
