# Blender v2.79 (sub 0) OBJ File: ''
# www.blender.org
mtllib torre1.mtl
o Plane.002_Plane.006
v 1.163313 0.631289 -2.362343
v 1.163313 0.327621 -2.362343
v 1.163313 0.327621 -1.797831
v 1.163313 0.631289 -1.797831
v 1.552632 0.327621 -1.797831
v 1.552632 0.631289 -1.797831
v 1.494234 0.631289 -2.362343
v 1.494234 0.327621 -2.362343
v 1.552632 0.631289 -2.303946
v 1.552632 0.327621 -2.303946
v 1.494234 0.241970 -2.362343
v 1.494234 0.327621 -2.362343
vt 0.758492 0.534548
vt 0.880405 0.534191
vt 0.881101 0.751102
vt 0.759187 0.751460
vt 0.258587 0.787317
vt 0.380500 0.786943
vt 0.380980 0.943242
vt 0.259066 0.943616
vt 0.890972 0.338959
vt 0.986250 0.338585
vt 0.986568 0.471439
vt 0.891290 0.471813
vt 0.890916 0.315514
vt 0.986194 0.315140
vt 0.382393 0.787317
vt 0.504307 0.786943
vt 0.504930 0.990132
vt 0.383017 0.990506
vn -1.0000 -0.0000 0.0000
vn 0.0000 -0.0000 1.0000
vn 0.0000 0.0000 -1.0000
vn 0.7071 0.0000 -0.7071
vn 1.0000 0.0000 0.0000
usemtl pallet_box_mat
s 1
f 1/1/1 2/2/1 3/3/1 4/4/1
f 4/5/2 3/6/2 5/7/2 6/8/2
f 7/9/3 8/10/3 2/11/3 1/12/3
f 9/13/4 10/14/4 8/10/4 7/9/4
f 6/15/5 5/16/5 10/17/5 9/18/5
l 11 12
