# Blender v2.79 (sub 0) OBJ File: ''
# www.blender.org
mtllib pinza2.mtl
o vorkheftruck_003.lwo
v -0.636480 0.228749 2.622180
v -0.636480 0.228749 3.098800
v -0.398170 0.228749 3.098800
v -0.398170 0.228749 2.622180
v -0.636480 0.181087 3.051140
v -0.636480 0.149312 2.622180
v -0.398170 0.149312 2.622180
v -0.398170 0.181087 3.051140
v -0.636480 0.228749 0.254967
v -0.398170 0.228749 0.254967
v -0.398170 0.204918 0.254967
v -0.636480 0.204918 0.254967
v -0.636480 0.149312 0.254967
v -0.398170 0.149312 0.254967
v -0.398170 0.204915 3.090860
v -0.636480 0.204915 3.090860
v -0.636480 0.204918 2.622180
v -0.398170 0.204918 2.622180
v -0.398170 0.149312 0.382066
v -0.636480 0.149312 0.382066
v -0.636480 0.204918 0.382066
v -0.636480 0.228749 0.382066
v -0.398170 0.204918 0.382066
v -0.398170 0.228749 0.382066
v -0.636480 0.252580 0.254967
v -0.398170 0.252580 0.254967
v -0.636480 0.252580 0.382066
v -0.398170 0.252580 0.382066
v -0.636480 0.228749 0.405897
v -0.398170 0.228749 0.405897
v -0.398170 0.149312 0.405897
v -0.636480 0.149312 0.405897
v -0.636480 0.204918 0.405897
v -0.398170 0.204918 0.405897
vn 0.0000 1.0000 0.0000
vn 0.0000 -0.9973 0.0739
vn 0.0000 0.0000 -1.0000
vn 0.0000 -0.3161 0.9487
vn 0.0000 -0.8575 0.5144
vn -1.0000 0.0000 0.0000
vn 1.0000 0.0000 0.0000
vn 0.0000 -1.0000 -0.0000
vn 0.0000 0.0000 1.0000
usemtl vorken
s 1
f 1//1 2//1 3//1
f 4//1 1//1 3//1
f 5//2 6//2 7//2
f 8//2 5//2 7//2
f 9//3 10//3 11//3
f 12//3 9//3 11//3
f 13//3 12//3 14//3
f 12//3 11//3 14//3
f 3//4 2//4 15//4
f 2//4 16//4 15//4
f 15//5 5//5 8//5
f 15//5 16//5 5//5
f 5//6 17//6 6//6
f 16//6 17//6 5//6
f 2//6 1//6 16//6
f 1//6 17//6 16//6
f 18//7 8//7 7//7
f 18//7 15//7 8//7
f 4//7 3//7 15//7
f 18//7 4//7 15//7
f 13//8 14//8 19//8
f 20//8 13//8 19//8
f 21//6 12//6 13//6
f 21//6 13//6 20//6
f 9//6 12//6 21//6
f 22//6 9//6 21//6
f 11//7 23//7 14//7
f 14//7 23//7 19//7
f 11//7 10//7 23//7
f 10//7 24//7 23//7
f 9//3 25//3 10//3
f 25//3 26//3 10//3
f 27//6 9//6 22//6
f 27//6 25//6 9//6
f 28//9 22//9 24//9
f 28//9 27//9 22//9
f 10//7 26//7 24//7
f 26//7 28//7 24//7
f 24//1 22//1 29//1
f 24//1 29//1 30//1
f 30//1 1//1 4//1
f 30//1 29//1 1//1
f 20//8 19//8 31//8
f 32//8 20//8 31//8
f 6//8 32//8 7//8
f 32//8 31//8 7//8
f 21//6 20//6 32//6
f 33//6 21//6 32//6
f 17//6 33//6 6//6
f 33//6 32//6 6//6
f 29//6 22//6 21//6
f 29//6 21//6 33//6
f 1//6 29//6 17//6
f 29//6 33//6 17//6
f 23//7 34//7 19//7
f 19//7 34//7 31//7
f 31//7 18//7 7//7
f 34//7 18//7 31//7
f 24//7 30//7 23//7
f 23//7 30//7 34//7
f 34//7 4//7 18//7
f 30//7 4//7 34//7
