# Blender v2.79 (sub 0) OBJ File: ''
# www.blender.org
mtllib pinza1.mtl
o vorkheftruck_003.lwo
v 0.636480 0.228749 3.098800
v 0.636480 0.228749 2.622180
v 0.398170 0.228749 3.098800
v 0.398170 0.228749 2.622180
v 0.636480 0.149312 2.622180
v 0.636480 0.181087 3.051140
v 0.398170 0.149312 2.622180
v 0.398170 0.181087 3.051140
v 0.398170 0.228749 0.254967
v 0.636480 0.228749 0.254967
v 0.398170 0.204918 0.254967
v 0.636480 0.204918 0.254967
v 0.636480 0.149312 0.254967
v 0.398170 0.149312 0.254967
v 0.398170 0.204915 3.090860
v 0.636480 0.204915 3.090860
v 0.636480 0.204918 2.622180
v 0.398170 0.204918 2.622180
v 0.398170 0.149312 0.382066
v 0.636480 0.149312 0.382066
v 0.636480 0.204918 0.382066
v 0.636480 0.228749 0.382066
v 0.398170 0.204918 0.382066
v 0.398170 0.228749 0.382066
v 0.636480 0.252580 0.254967
v 0.398170 0.252580 0.254967
v 0.636480 0.252580 0.382066
v 0.398170 0.252580 0.382066
v 0.636480 0.228749 0.405897
v 0.398170 0.228749 0.405897
v 0.636480 0.149312 0.405897
v 0.636480 0.204918 0.405897
v 0.398170 0.204918 0.405897
vn 0.0000 1.0000 0.0000
vn 0.0000 -0.9973 0.0739
vn 0.0000 0.0000 -1.0000
vn 0.0000 -0.3161 0.9487
vn 0.0000 -0.8575 0.5144
vn 1.0000 0.0000 0.0000
vn -1.0000 0.0000 0.0000
vn 0.0000 -1.0000 0.0000
vn 0.0000 0.0000 1.0000
usemtl vorken
s 1
f 1//1 2//1 3//1
f 2//1 4//1 3//1
f 5//2 6//2 7//2
f 6//2 8//2 7//2
f 9//3 10//3 11//3
f 10//3 12//3 11//3
f 12//3 13//3 14//3
f 11//3 12//3 14//3
f 1//4 3//4 15//4
f 16//4 1//4 15//4
f 6//5 15//5 8//5
f 16//5 15//5 6//5
f 17//6 6//6 5//6
f 17//6 16//6 6//6
f 17//6 2//6 16//6
f 2//6 1//6 16//6
f 8//7 18//7 7//7
f 15//7 18//7 8//7
f 3//7 4//7 15//7
f 4//7 18//7 15//7
f 14//8 13//8 19//8
f 13//8 20//8 19//8
f 12//6 21//6 13//6
f 13//6 21//6 20//6
f 12//6 10//6 21//6
f 10//6 22//6 21//6
f 23//7 11//7 14//7
f 23//7 14//7 19//7
f 9//7 11//7 23//7
f 24//7 9//7 23//7
f 25//3 10//3 9//3
f 26//3 25//3 9//3
f 10//6 27//6 22//6
f 25//6 27//6 10//6
f 22//9 28//9 24//9
f 27//9 28//9 22//9
f 26//7 9//7 24//7
f 28//7 26//7 24//7
f 22//1 24//1 29//1
f 29//1 24//1 30//1
f 2//1 30//1 4//1
f 29//1 30//1 2//1
f 31//8 5//8 7//8
f 20//6 21//6 31//6
f 21//6 32//6 31//6
f 32//6 17//6 5//6
f 31//6 32//6 5//6
f 22//6 29//6 21//6
f 21//6 29//6 32//6
f 29//6 2//6 17//6
f 32//6 29//6 17//6
f 33//7 23//7 19//7
f 30//7 24//7 23//7
f 30//7 23//7 33//7
f 4//7 33//7 18//7
f 4//7 30//7 33//7
